<svg xmlns="http://www.w3.org/2000/svg" viewBox="0 0 24 24" fill="#339933">
  <path d="M11.998 24c-.321 0-.641-.084-.922-.247L.922 17.753C.347 17.417 0 16.805 0 16.125V7.875c0-.68.347-1.292.922-1.628L11.076.247c.562-.336 1.258-.336 1.822 0l10.154 6.001c.575.336.922.948.922 1.628v8.25c0 .68-.347 1.292-.922 1.628l-10.154 6.001a1.82 1.82 0 0 1-.9.247zM2.182 7.875v8.25l9.816 5.789 9.816-5.789v-8.25L12 2.086 2.182 7.875z"/>
  <path d="M12 6.5c-2.761 0-5 1.567-5 3.5s2.239 3.5 5 3.5 5-1.567 5-3.5-2.239-3.5-5-3.5z" fill="#fff" opacity="0.9"/>
</svg>
